<svg width="0" height="0" class="hidden">
  <symbol xmlns="http://www.w3.org/2000/svg" viewBox="0 0 318 60" id="logo">
    <path d="M68.5 60h-58c-9.4 0-14-11.3-7.4-17.9l29-39C36.2-1 42.8-1 46.9 3.1l29 39c6.7 6.6 2 17.9-7.4 17.9zm77.1-29.6c0 2.8-.2 4.7-.7 5.8-.5 1.1-1.6 3.2-3.5 6.3-1.9 3.2-3.2 5.1-3.9 5.9-.5.5-1.6.8-3.5.8-1.5 0-2.5-.1-2.9-.2-.3-.1-.6-.3-.9-.5-1-1-2.6-3.4-4.7-7.3-2.2 4-3.8 6.4-4.6 7.3-.4.5-1.6.7-3.5.7-1.3 0-2.2-.1-2.6-.2-.9-.2-2.4-2.2-4.5-5.8-1.7-2.9-2.9-5.3-3.7-7.1-.5-1.1-.7-3.1-.7-5.8 0-3.3.1-5.3.3-6 .1-.5.4-.7.9-.7.8 0 2 0 3.7.1 1.6.1 2.8.1 3.7.1.4 0 .6.3.6.9 0 .5 0 1.3-.1 2.3 0 1.1-.1 1.8-.1 2.3 0 2.1.1 3.7.2 4.8 0 .4.5 1.4 1.4 3 .9 1.6 1.5 2.4 1.7 2.4.3 0 .9-.8 1.8-2.4.7-1.3 1.1-2.3 1.4-3 .2-.6.3-2.2.3-4.8 0-.5 0-1.3-.1-2.4-.1-1.1-.1-1.8-.1-2.3 0-.5.2-.8.6-.8h3.9s-.1 0 0 0h.9c.7 0 1.7 0 2.9.1.4.1.6.3.6.8 0 .7 0 1.7-.1 3.1-.1 1.4-.1 2.4-.1 3.1 0 1.8.1 2.9.2 3.4.2.6.6 1.6 1.3 2.9.8 1.6 1.4 2.4 1.7 2.4.3 0 .9-.8 1.8-2.4.8-1.5 1.3-2.5 1.3-3 .1-.7.1-3.8.1-9.4 0-.6.2-.9.5-.9.8 0 2 0 3.7-.1 1.6-.1 2.9-.1 3.7-.1.5 0 .8.2.9.7.1.8.2 2.8.2 6zm12.8 6.4c0 1.3 0 3.2.1 5.8.1 2.6.1 4.5.1 5.7 0 .4-.2.6-.7.7-.6.1-2 .2-4.1.2-2.1 0-3.5-.1-4.1-.2-.4-.1-.6-.2-.7-.3 0-.1-.1-.3-.1-.8 0-1.2 0-3.1.1-5.5.1-2.5.1-4.3.1-5.5 0-5-.2-9-.6-12 0-.3-.1-.5-.1-.6 0-.4.2-.5.7-.5.5 0 1.3.1 2.3.2 1 .1 1.8.2 2.3.2.5 0 1.3 0 2.3-.1 1-.1 1.8-.1 2.3-.1.4 0 .6.2.6.5 0 .1 0 .2-.1.5-.2 3.3-.4 7.3-.4 11.8zm.7-19.7c0 3.1-1.7 4.6-5.2 4.6-1.5 0-2.7-.4-3.7-1.2-1.1-.8-1.6-2-1.6-3.5 0-1.4.5-2.5 1.6-3.4 1-.8 2.2-1.2 3.6-1.2s2.6.4 3.6 1.2c1.2 1 1.7 2.1 1.7 3.5zm30.8 31.1c0 .5-.2.8-.7.8-.5.1-1.8.1-3.9.1-2.2 0-3.6-.1-4.1-.2s-.8-.5-.8-1.1c0-.8 0-2.1.1-3.8.1-1.7.1-2.9.1-3.8 0-.7 0-1.6-.1-2.9 0-1.3-.1-2.3-.1-2.9 0-2.4-1.1-3.6-3.2-3.6-.7 0-1.5.3-2.4.9-1 .7-1.5 1.3-1.5 2V48c0 .6-.3.9-.8 1-.6.1-1.9.1-3.8.1-2.1 0-3.4-.1-4-.2-.5-.1-.8-.4-.8-.9V35.5c0-4.4-.3-7.9-1-10.4 0-.2-.1-.3-.1-.4 0-.3.1-.5.4-.6 1.1-.1 2.6-.3 4.5-.6 2.8-.5 4.4-.8 4.8-.8.2 0 .3.6.5 1.8.1 1.2.3 1.8.5 1.8-.2 0 .8-.6 2.9-1.8s3.9-1.8 5.5-1.8c2.2 0 4.1.5 5.6 1.6 1.7 1.2 2.5 2.9 2.5 5.1v13.7c0 2.3-.1 4-.1 5.1zm32.6-36.9c0-.4-.1.2-.2 1.8-.2 2-.3 4.5-.5 7.5-.1 3.5-.2 7.4-.2 11.8 0 7.3.2 12.5.6 15.6 0 .3.1.5.1.6 0 .2-.1.3-.4.3-.6.1-3 .1-7 .1-1 0-1.5-.2-1.6-.6 0-.7-.1-1.3-.1-2 0-.1-.1-.3-.2-.4-.1.1-.2.2-.4.3-1.9 1.9-4.3 2.8-7.2 2.8-3.7 0-6.7-1.3-9-3.9-2.1-2.5-3.2-5.6-3.2-9.4 0-3.9 1.1-7 3.2-9.5 2.2-2.7 5.2-4 9-4 2.7 0 4.8.8 6.2 2.5.2.3.4.4.5.4.2 0 .2-.2.2-.7 0-1.4 0-3.4-.1-6.1-.1-2.7-.1-4.7-.1-6.1 0-.5.1-.8.4-.9 1.1-.1 2.7-.2 4.7-.3 3.5-.4 5.1-.7 4.7-.7.4.3.6.5.6.9zm-10 24.4c0-1.4-.5-2.6-1.5-3.7s-2.1-1.6-3.5-1.6c-1.5 0-2.6.5-3.5 1.6s-1.3 2.3-1.3 3.8c0 1.4.4 2.6 1.3 3.6.9 1.1 2 1.6 3.5 1.6s2.6-.5 3.6-1.6c.9-1 1.4-2.2 1.4-3.7zm42.7.3c0 3.7-1.1 6.8-3.2 9.3-2.3 2.7-5.2 4-8.9 4-2.7 0-4.8-.8-6.4-2.3-.1-.1-.2-.2-.3-.2-.2 0-.3.3-.5 1s-.3 1-.5 1.1c-.3.1-2.8.1-7.6.1-1.1 0-1.7-.2-1.7-.6 0-.1 0-.2.1-.4.4-2.8.5-8.2.5-16.1 0-7.6-.3-14.1-.8-19.7v-.3c0-.3.3-.4.8-.5.4 0 1.9-.1 4.6-.4 1.9-.2 3.4-.3 4.6-.3.3 0 .5.3.5.9 0 .7 0 1.6-.1 2.7-.1 1.4-.2 2.3-.2 2.8-.1 1.8-.1 4.1-.1 7.2 0 .5.1.8.4.8.1 0 .3-.1.4-.2 1.6-1.7 3.7-2.5 6.3-2.5 3.9 0 6.9 1.3 9.1 4 2 2.4 3 5.6 3 9.6zm-9.6-.3c0-1.5-.5-2.7-1.4-3.7s-2.1-1.5-3.5-1.5c-1.5 0-2.7.5-3.5 1.5s-1.3 2.3-1.3 3.8c0 1.6.4 2.8 1.2 3.8.9 1 2.1 1.5 3.6 1.5s2.7-.5 3.6-1.6c.9-1 1.3-2.2 1.3-3.8zm39.2 12.5c0 .5-.2.8-.7.8-.5.1-1.8.1-3.9.1-2.2 0-3.6-.1-4.1-.2-.5-.1-.8-.5-.8-1.1 0-.8 0-2.1.1-3.8.1-1.7.1-2.9.1-3.8 0-.7 0-1.6-.1-2.9 0-1.3-.1-2.3-.1-2.9 0-2.4-1.1-3.6-3.2-3.6-.7 0-1.5.3-2.4.9-1 .7-1.5 1.3-1.5 2V48c0 .6-.3.9-.8 1-.6.1-1.9.1-3.8.1-2.1 0-3.4-.1-4-.2-.5-.1-.8-.4-.8-.9V35.5c0-4.4-.3-7.9-1-10.4 0-.2-.1-.3-.1-.4 0-.3.1-.5.4-.6 1.1-.1 2.6-.3 4.5-.6 2.8-.5 4.4-.8 4.8-.8.2 0 .3.6.5 1.8.1 1.2.3 1.8.5 1.8-.2 0 .8-.6 2.9-1.8 2.1-1.2 3.9-1.8 5.5-1.8 2.2 0 4.1.5 5.6 1.6 1.7 1.2 2.5 2.9 2.5 5.1v13.7c-.1 2.3-.1 4-.1 5.1zM318 36c0 3.7-1.1 6.8-3.2 9.3-2.3 2.7-5.2 4-8.9 4-2.7 0-4.8-.8-6.4-2.3-.1-.1-.2-.2-.3-.2-.2 0-.3.3-.5 1s-.3 1-.5 1.1c-.3.1-2.8.1-7.6.1-1.1 0-1.7-.2-1.7-.6 0-.1 0-.2.1-.4.4-2.8.5-8.2.5-16.1 0-7.6-.3-14.1-.8-19.7v-.3c0-.3.3-.4.8-.5.4 0 1.9-.1 4.6-.4 1.9-.2 3.4-.3 4.6-.3.3 0 .5.3.5.9 0 .7 0 1.6-.1 2.7-.1 1.4-.2 2.3-.2 2.8-.1 1.8-.1 4.1-.1 7.2 0 .5.1.8.4.8.1 0 .3-.1.4-.2 1.6-1.7 3.7-2.5 6.3-2.5 3.9 0 6.9 1.3 9.1 4 2 2.4 3 5.6 3 9.6zm-9.6-.3c0-1.5-.5-2.7-1.4-3.7s-2.1-1.5-3.5-1.5c-1.5 0-2.7.5-3.5 1.5-.9 1-1.3 2.3-1.3 3.8 0 1.6.4 2.8 1.2 3.8.9 1 2.1 1.5 3.6 1.5s2.7-.5 3.6-1.6c.9-1 1.3-2.2 1.3-3.8z"></path>
  </symbol>
  <symbol xmlns="http://www.w3.org/2000/svg" viewBox="0 0 15.3 15.5" id="magnifying-glass">
    <path d="M13.9 15.5c-.4 0-.7-.1-1-.4l-4.9-5s-.1-.1-.1-.2c-.8.4-1.7.7-2.6.7C2.4 10.6 0 8.2 0 5.3S2.4 0 5.3 0s5.3 2.4 5.3 5.3c0 1-.3 1.9-.8 2.7.1 0 .1.1.2.1l4.9 4.9c.5.5.5 1.4 0 2-.2.3-.6.5-1 .5zM8.6 8.8v.4c0 .1 0 .2.1.3l4.9 4.9c.1.1.4.1.5 0 .1-.1.1-.4 0-.5l-4.8-5c-.1-.1-.2-.1-.3-.1h-.4zM5.3 1C2.9 1 1 2.9 1 5.3s1.9 4.3 4.3 4.3c.9 0 1.8-.3 2.5-.8l.5-.3.4-.5c.6-.8.9-1.7.9-2.7C9.6 2.9 7.7 1 5.3 1z" fill="#eb5757"></path>
  </symbol>
  <symbol xmlns="http://www.w3.org/2000/svg" viewBox="0 0 11.1 15.5" id="map-pin">
    <path d="M5.6 15.5c-.8 0-5.6-3.8-5.6-9.9C0 2.5 2.5 0 5.6 0s5.6 2.5 5.6 5.6c-.1 6.1-4.9 9.9-5.6 9.9zm-.2-1zM5.6 1C3.1 1 1 3.1 1 5.6c0 5.1 3.7 8.3 4.6 8.8.9-.6 4.6-3.7 4.6-8.8C10.1 3.1 8.1 1 5.6 1zm0 6.4c-1.3 0-2.3-1-2.3-2.3s1-2.3 2.3-2.3 2.3 1 2.3 2.3-1.1 2.3-2.3 2.3zm0-3.5c-.7 0-1.3.6-1.3 1.3s.6 1.3 1.3 1.3 1.3-.6 1.3-1.3-.6-1.3-1.3-1.3z"></path>
  </symbol>
  <symbol xmlns="http://www.w3.org/2000/svg" viewBox="0 0 15.2 14.5" id="star">
    <path d="M10.9 9.2c0-.1 0-.3.1-.4L15 6c.4-.3.2-.9-.3-.9H9.9c-.1 0-.3-.1-.3-.2L8 .3c-.1-.4-.8-.4-.9 0L5.6 4.9c0 .1-.2.2-.3.2H.5c-.5.1-.7.6-.3.9l3.9 2.8c.1.1.2.2.1.4l-1.5 4.6c-.1.4.4.8.7.5l3.9-2.8c.1-.1.3-.1.4 0l3.9 2.8c.4.3.9-.1.7-.5l-1.4-4.6z" fill="#eb5757"></path>
  </symbol>
</svg>