<?xml version="1.0" encoding="utf-8"?>
<!-- Generator: Adobe Illustrator 23.0.1, SVG Export Plug-In . SVG Version: 6.00 Build 0)  -->
<svg version="1.1" id="Layer_1" xmlns="http://www.w3.org/2000/svg" xmlns:xlink="http://www.w3.org/1999/xlink" x="0px" y="0px"
	 viewBox="0 0 15.3 15.5" style="enable-background:new 0 0 15.3 15.5;" xml:space="preserve">
<style type="text/css">
	.st0{fill:#EB5757;}
</style>
<g>
	<path class="st0" d="M13.9,15.5c-0.4,0-0.7-0.1-1-0.4L8,10.1C8,10.1,7.9,10,7.9,9.9c-0.8,0.4-1.7,0.7-2.6,0.7C2.4,10.6,0,8.2,0,5.3
		S2.4,0,5.3,0s5.3,2.4,5.3,5.3c0,1-0.3,1.9-0.8,2.7c0.1,0,0.1,0.1,0.2,0.1l4.9,4.9c0.5,0.5,0.5,1.4,0,2
		C14.7,15.3,14.3,15.5,13.9,15.5z M8.6,8.8l0,0.4c0,0.1,0,0.2,0.1,0.3l4.9,4.9c0.1,0.1,0.4,0.1,0.5,0c0.1-0.1,0.1-0.4,0-0.5L9.3,8.9
		C9.2,8.8,9.1,8.8,9,8.8L8.6,8.8z M5.3,1C2.9,1,1,2.9,1,5.3s1.9,4.3,4.3,4.3c0.9,0,1.8-0.3,2.5-0.8l0.5-0.3L8.7,8
		c0.6-0.8,0.9-1.7,0.9-2.7C9.6,2.9,7.7,1,5.3,1z"/>
</g>
</svg>
