<?xml version="1.0" encoding="utf-8"?>
<!-- Generator: Adobe Illustrator 23.0.1, SVG Export Plug-In . SVG Version: 6.00 Build 0)  -->
<svg version="1.1" id="Layer_1" xmlns="http://www.w3.org/2000/svg" xmlns:xlink="http://www.w3.org/1999/xlink" x="0px" y="0px"
	 viewBox="0 0 11.1 15.5" style="enable-background:new 0 0 11.1 15.5;" xml:space="preserve">
<style type="text/css">
	.st0{fill:#EB5757;}
</style>
<g>
	<path class="st0" d="M5.6,15.5C4.8,15.5,0,11.7,0,5.6C0,2.5,2.5,0,5.6,0s5.6,2.5,5.6,5.6C11.1,11.7,6.3,15.5,5.6,15.5z M5.4,14.5
		C5.4,14.5,5.4,14.5,5.4,14.5L5.4,14.5z M5.6,1C3.1,1,1,3.1,1,5.6c0,5.1,3.7,8.3,4.6,8.8c0.9-0.6,4.6-3.7,4.6-8.8
		C10.1,3.1,8.1,1,5.6,1z M5.6,7.4c-1.3,0-2.3-1-2.3-2.3s1-2.3,2.3-2.3s2.3,1,2.3,2.3S6.8,7.4,5.6,7.4z M5.6,3.9
		c-0.7,0-1.3,0.6-1.3,1.3s0.6,1.3,1.3,1.3s1.3-0.6,1.3-1.3S6.3,3.9,5.6,3.9z"/>
</g>
</svg>
