<?xml version="1.0" encoding="utf-8"?>
<!-- Generator: Adobe Illustrator 23.0.1, SVG Export Plug-In . SVG Version: 6.00 Build 0)  -->
<svg version="1.1" id="Layer_1" xmlns="http://www.w3.org/2000/svg" xmlns:xlink="http://www.w3.org/1999/xlink" x="0px" y="0px"
	 viewBox="0 0 15.2 14.5" style="enable-background:new 0 0 15.2 14.5;" xml:space="preserve">
<style type="text/css">
	.st0{fill:#EB5757;}
</style>
<path class="st0" d="M10.9,9.2c0-0.1,0-0.3,0.1-0.4L15,6c0.4-0.3,0.2-0.9-0.3-0.9l-4.8,0c-0.1,0-0.3-0.1-0.3-0.2L8,0.3
	c-0.1-0.4-0.8-0.4-0.9,0L5.6,4.9c0,0.1-0.2,0.2-0.3,0.2l-4.8,0C0,5.2-0.2,5.7,0.2,6l3.9,2.8c0.1,0.1,0.2,0.2,0.1,0.4l-1.5,4.6
	c-0.1,0.4,0.4,0.8,0.7,0.5l3.9-2.8c0.1-0.1,0.3-0.1,0.4,0l3.9,2.8c0.4,0.3,0.9-0.1,0.7-0.5L10.9,9.2z"/>
</svg>
